<svg width="72" height="24" viewBox="0 0 72 24" fill="none" xmlns="http://www.w3.org/2000/svg">
<rect y="7" width="16" height="16" fill="#5750EC"/>
<circle r="1.96438" transform="matrix(1 0 0 -1 9.96438 14.9644)" fill="white"/>
<path d="M6.86914 13.0462C-1.34651 18.4277 12.4854 18.6625 12.4854 18.6625L10.0461 20.3079L1.51467 17.0915L8.42663 9.82102C8.42663 9.82102 15.0848 7.66474 6.86914 13.0462Z" fill="white"/>
<path d="M21 19.78L26.96 10.72V10.7L26.98 10.68C26.98 10.6667 26.9733 10.66 26.96 10.66H21.52C21.2133 10.66 20.9467 10.5533 20.72 10.34C20.4933 10.1133 20.38 9.84667 20.38 9.54C20.38 9.23333 20.4933 8.96667 20.72 8.74C20.9467 8.51333 21.2133 8.4 21.52 8.4H29.12C29.4267 8.4 29.6933 8.51333 29.92 8.74C30.1467 8.96667 30.26 9.23333 30.26 9.54C30.26 10.2867 30.0533 10.98 29.64 11.62L23.68 20.68V20.7L23.66 20.72C23.66 20.7333 23.6667 20.74 23.68 20.74H29.12C29.4267 20.74 29.6933 20.8533 29.92 21.08C30.1467 21.2933 30.26 21.5533 30.26 21.86C30.26 22.1667 30.1467 22.4333 29.92 22.66C29.6933 22.8867 29.4267 23 29.12 23H21.52C21.2133 23 20.9467 22.8867 20.72 22.66C20.4933 22.4333 20.38 22.1667 20.38 21.86C20.38 21.1133 20.5867 20.42 21 19.78ZM34.7567 23C34.4501 23 34.1834 22.8867 33.9567 22.66C33.7301 22.4333 33.6167 22.1667 33.6167 21.86V13.74C33.6167 13.4333 33.7301 13.1667 33.9567 12.94C34.1834 12.7133 34.4501 12.6 34.7567 12.6H35.2767C35.5834 12.6 35.8501 12.7133 36.0767 12.94C36.3034 13.1667 36.4167 13.4333 36.4167 13.74V21.86C36.4167 22.1667 36.3034 22.4333 36.0767 22.66C35.8501 22.8867 35.5834 23 35.2767 23H34.7567ZM34.7567 10.4C34.4501 10.4 34.1834 10.2867 33.9567 10.06C33.7301 9.83333 33.6167 9.56667 33.6167 9.26V9.14C33.6167 8.83333 33.7301 8.56667 33.9567 8.34C34.1834 8.11333 34.4501 8 34.7567 8H35.2767C35.5834 8 35.8501 8.11333 36.0767 8.34C36.3034 8.56667 36.4167 8.83333 36.4167 9.14V9.26C36.4167 9.56667 36.3034 9.83333 36.0767 10.06C35.8501 10.2867 35.5834 10.4 35.2767 10.4H34.7567ZM40.9145 23C40.6079 23 40.3412 22.8867 40.1145 22.66C39.8879 22.4333 39.7745 22.1667 39.7745 21.86V13.74C39.7745 13.4333 39.8879 13.1667 40.1145 12.94C40.3412 12.7133 40.6079 12.6 40.9145 12.6H41.1745C41.4945 12.6 41.7612 12.7133 41.9745 12.94C42.2012 13.1533 42.3212 13.42 42.3345 13.74V13.88C42.3345 13.8933 42.3412 13.9 42.3545 13.9C42.3679 13.9 42.3812 13.8933 42.3945 13.88C43.3012 12.8933 44.3612 12.4 45.5745 12.4C46.7879 12.4 47.6679 12.7467 48.2145 13.44C48.7745 14.12 49.0545 15.26 49.0545 16.86V21.86C49.0545 22.1667 48.9412 22.4333 48.7145 22.66C48.4879 22.8867 48.2212 23 47.9145 23H47.5745C47.2679 23 47.0012 22.8867 46.7745 22.66C46.5612 22.4333 46.4545 22.1667 46.4545 21.86V17.06C46.4545 16.06 46.3212 15.38 46.0545 15.02C45.8012 14.6467 45.3412 14.46 44.6745 14.46C44.1279 14.46 43.6212 14.6933 43.1545 15.16C42.6879 15.6267 42.4545 16.1267 42.4545 16.66V21.86C42.4545 22.1667 42.3412 22.4333 42.1145 22.66C41.8879 22.8867 41.6212 23 41.3145 23H40.9145ZM55.9481 14.26C55.2681 14.26 54.7415 14.4533 54.3681 14.84C54.0081 15.2133 53.7815 15.82 53.6881 16.66C53.6881 16.7667 53.7415 16.82 53.8481 16.82H57.7681C57.8748 16.82 57.9281 16.7667 57.9281 16.66C57.8748 15.06 57.2148 14.26 55.9481 14.26ZM56.4481 23.2C54.7015 23.2 53.3548 22.7467 52.4081 21.84C51.4748 20.92 51.0081 19.5733 51.0081 17.8C51.0081 16.04 51.4281 14.7 52.2681 13.78C53.1081 12.86 54.3215 12.4 55.9081 12.4C58.8681 12.4 60.3881 14.08 60.4681 17.44C60.4815 17.76 60.3681 18.0267 60.1281 18.24C59.8881 18.4533 59.6081 18.56 59.2881 18.56H53.8281C53.7081 18.56 53.6615 18.62 53.6881 18.74C53.7815 19.6333 54.0748 20.2867 54.5681 20.7C55.0748 21.1 55.8081 21.3 56.7681 21.3C57.3681 21.3 58.0348 21.2 58.7681 21C59.0081 20.9333 59.2281 20.9733 59.4281 21.12C59.6415 21.2667 59.7481 21.4667 59.7481 21.72C59.7481 22.0267 59.6548 22.3 59.4681 22.54C59.2948 22.7667 59.0615 22.9067 58.7681 22.96C58.0215 23.12 57.2481 23.2 56.4481 23.2ZM63.7661 23C63.4594 23 63.1928 22.8867 62.9661 22.66C62.7394 22.4333 62.6261 22.1667 62.6261 21.86V13.74C62.6261 13.4333 62.7394 13.1667 62.9661 12.94C63.1928 12.7133 63.4594 12.6 63.7661 12.6H64.1661C64.4728 12.6 64.7394 12.7133 64.9661 12.94C65.1928 13.1667 65.3061 13.4333 65.3061 13.74V14.58C65.3061 14.5933 65.3128 14.6 65.3261 14.6C65.3528 14.6 65.3661 14.5933 65.3661 14.58C65.7528 14.0467 66.2594 13.6133 66.8861 13.28C67.5128 12.9333 68.1994 12.72 68.9461 12.64C69.2261 12.6133 69.4661 12.7067 69.6661 12.92C69.8661 13.12 69.9661 13.36 69.9661 13.64C69.9661 13.92 69.8661 14.16 69.6661 14.36C69.4661 14.56 69.2261 14.6733 68.9461 14.7C66.5861 14.8867 65.4061 16.0867 65.4061 18.3V21.86C65.4061 22.1667 65.2928 22.4333 65.0661 22.66C64.8394 22.8867 64.5728 23 64.2661 23H63.7661Z" fill="#5750EC"/>
</svg>
